<!-- 主题色 从左到右渐变 rgb(46, 59, 91) 至 #FFFFFF-->
<svg width="429.00000000000006" height="106.82270916334662" viewBox="0 0 369.89473684210526 92.10526315789473"
     class="css-1j8o68f">
    <defs id="SvgjsDefs1831"></defs>
    <g id="SvgjsG1832" featurekey="5TMTKC-0" transform="matrix(1.9188596491228067,0,0,1.9188596491228067,0,0)"
       fill="#f0d687">
        <g xmlns="http://www.w3.org/2000/svg">
            <path d="M36,10.5L23.7,22.8c-0.4,0.4-0.4,1.1,0,1.5c0.4,0.4,1.1,0.4,1.5,0L37.5,12l3.7,0.5L48,5.7L43,5l-0.7-5l-6.9,6.9L36,10.5z"></path>
            <path d="M42,14.5c1.5,2.8,2.4,6,2.4,9.5c0,11.2-9.1,20.3-20.3,20.3C12.8,44.3,3.7,35.2,3.7,24C3.7,12.8,12.8,3.7,24,3.7   c3.4,0,6.6,0.8,9.5,2.3l2.7-2.7C32.6,1.2,28.4,0,24,0C10.8,0,0,10.8,0,24c0,13.2,10.8,24,24,24c13.2,0,24-10.8,24-24   c0-4.4-1.2-8.6-3.3-12.2L42,14.5z"></path>
            <path d="M33.4,10.3c-2.7-1.9-5.9-2.9-9.4-2.9C14.8,7.4,7.4,14.8,7.4,24c0,9.2,7.4,16.6,16.6,16.6S40.6,33.2,40.6,24   c0-3.5-1.1-6.7-2.9-9.4L35,17.3c1.2,2,1.9,4.3,1.9,6.7c0,7.1-5.8,12.9-12.9,12.9c-7.1,0-12.9-5.8-12.9-12.9   c0-7.1,5.8-12.9,12.9-12.9c2.5,0,4.8,0.7,6.7,1.9L33.4,10.3z"></path>
            <path d="M24,18.5c0.4,0,0.8,0,1.1,0.1l2.9-2.9c-1.2-0.6-2.6-0.9-4-0.9c-5.1,0-9.2,4.1-9.2,9.2s4.1,9.2,9.2,9.2s9.2-4.1,9.2-9.2   c0-1.4-0.3-2.8-0.9-4l-2.9,2.9c0,0,0,0,0,0c0.1,0.4,0.1,0.7,0.1,1.1c0,3.1-2.5,5.5-5.5,5.5c-3.1,0-5.5-2.5-5.5-5.5   C18.5,20.9,20.9,18.5,24,18.5z"></path>
        </g>
    </g>
    <g id="SvgjsG1833" featurekey="7UBp9i-0"
       transform="matrix(2.8976934239826844,0,0,2.8976934239826844,109.79775095281587,4.410409047358463)"
       fill="#ffffff">
        <path d="M7.78 5.380000000000001 c1.6667 0 3.0666 0.47 4.2 1.41 s1.7867 2.1834 1.96 3.73 l-3.04 0 c-0.10666 -0.70666 -0.46 -1.3 -1.06 -1.78 s-1.2867 -0.72 -2.06 -0.72 c-1.2267 0 -2.18 0.44 -2.86 1.32 s-1.02 2.0734 -1.02 3.58 c0 1.4667 0.34334 2.63 1.03 3.49 s1.6367 1.29 2.85 1.29 c0.90666 0 1.64 -0.27666 2.2 -0.83 s0.90666 -1.3433 1.04 -2.37 l3.04 0 c-0.16 1.8133 -0.81 3.24 -1.95 4.28 s-2.5834 1.56 -4.33 1.56 c-2.0934 0 -3.7866 -0.69 -5.08 -2.07 s-1.94 -3.1634 -1.94 -5.35 c0 -2.2134 0.64 -4.0234 1.92 -5.43 s2.98 -2.11 5.1 -2.11 z M20.92 9.38 c1.6533 0 2.96 0.50334 3.92 1.51 s1.44 2.3234 1.44 3.95 c0 1.64 -0.49 2.9566 -1.47 3.95 s-2.2766 1.49 -3.89 1.49 c-1.64 0 -2.94 -0.50334 -3.9 -1.51 s-1.44 -2.3166 -1.44 -3.93 c0 -1.6667 0.49 -2.9934 1.47 -3.98 s2.27 -1.48 3.87 -1.48 z M18.42 14.84 c0 1.0533 0.21334 1.8666 0.64 2.44 s1.0467 0.86 1.86 0.86 c0.84 0 1.47 -0.29334 1.89 -0.88 s0.63 -1.3933 0.63 -2.42 c0 -1.0667 -0.21666 -1.8867 -0.65 -2.46 s-1.0633 -0.86 -1.89 -0.86 c-0.8 0 -1.4133 0.28666 -1.84 0.86 s-0.64 1.3933 -0.64 2.46 z M34.08 9.38 c1.5067 0 2.5134 0.57332 3.02 1.72 c0.78666 -1.1467 1.8333 -1.72 3.14 -1.72 c1.2933 0 2.2434 0.32666 2.85 0.98 s0.91 1.5533 0.91 2.7 l0 6.94 l-2.84 0 l0 -5.98 c0 -0.90666 -0.13666 -1.5333 -0.41 -1.88 s-0.71668 -0.52 -1.33 -0.52 c-1.2667 0 -1.9 0.86666 -1.9 2.6 l0 5.78 l-2.84 0 l0 -6.1 c0 -0.88 -0.14 -1.48 -0.42 -1.8 s-0.71334 -0.48 -1.3 -0.48 c-0.54666 0 -1.0033 0.21666 -1.37 0.65 s-0.55 1.0033 -0.55 1.71 l0 6.02 l-2.84 0 l0 -10.34 l2.68 0 l0 1.4 l0.04 0 c0.78666 -1.12 1.84 -1.68 3.16 -1.68 z M52.059999999999995 9.38 c1.4267 0 2.5666 0.5 3.42 1.5 s1.28 2.3534 1.28 4.06 c0 1.56 -0.41 2.84 -1.23 3.84 s-1.9233 1.5 -3.31 1.5 c-1.36 0 -2.3934 -0.52 -3.1 -1.56 l-0.04 0 l0 4.92 l-2.84 0 l0 -13.98 l2.7 0 l0 1.32 l0.04 0 c0.68 -1.0667 1.7067 -1.6 3.08 -1.6 z M48.98 14.86 c0 1.0133 0.21336 1.8133 0.64002 2.4 s1.04 0.88 1.84 0.88 c0.82666 0 1.4433 -0.29334 1.85 -0.88 s0.61 -1.3867 0.61 -2.4 c0 -1.04 -0.22 -1.8567 -0.66 -2.45 s-1.0533 -0.89 -1.84 -0.89 s-1.39 0.29334 -1.81 0.88 s-0.63 1.4067 -0.63 2.46 z M63.22 9.38 c3.0134 0.01334 4.52 0.9933 4.52 2.94 l0 5.48 c0 1.0133 0.12 1.7467 0.36 2.2 l-2.88 0 c-0.10666 -0.32 -0.17332 -0.65334 -0.19998 -1 c-0.84 0.85334 -2 1.28 -3.48 1.28 c-1.08 0 -1.9367 -0.27334 -2.57 -0.82 s-0.95 -1.3067 -0.95 -2.28 c0 -0.94666 0.3 -1.68 0.9 -2.2 c0.61334 -0.54666 1.7267 -0.89332 3.34 -1.04 c1.1467 -0.12 1.8733 -0.27 2.18 -0.45 s0.46 -0.45666 0.46 -0.83 c0 -0.46666 -0.14 -0.81332 -0.42 -1.04 s-0.74666 -0.34 -1.4 -0.34 c-0.6 0 -1.0533 0.12334 -1.36 0.37 s-0.48666 0.64332 -0.54 1.19 l-2.84 0 c0.06666 -1.1333 0.53332 -1.9933 1.4 -2.58 s2.0266 -0.88 3.48 -0.88 z M60.85999999999999 17.06 c0 0.88 0.58 1.32 1.74 1.32 c1.52 -0.01334 2.2866 -0.79334 2.3 -2.34 l0 -1.1 c-0.22666 0.22666 -0.8 0.39332 -1.72 0.49998 c-0.8 0.09334 -1.3867 0.25668 -1.76 0.49002 s-0.56 0.61 -0.56 1.13 z M74.18 9.38 c1.3867 0 2.47 0.28002 3.25 0.84002 s1.2167 1.38 1.31 2.46 l-2.7 0 c-0.04 -0.49334 -0.22 -0.85 -0.54 -1.07 s-0.78666 -0.33 -1.4 -0.33 c-0.53334 0 -0.93 0.08 -1.19 0.24 s-0.39 0.4 -0.39 0.72 c0 0.24 0.08666 0.44 0.26 0.6 s0.43668 0.3 0.79002 0.42 s0.74334 0.22 1.17 0.3 c1.2933 0.25334 2.2066 0.51334 2.74 0.78 s0.92334 0.58666 1.17 0.96 s0.37 0.83334 0.37 1.38 c0 1.16 -0.42334 2.05 -1.27 2.67 s-1.9967 0.93 -3.45 0.93 c-1.52 0 -2.7034 -0.32666 -3.55 -0.98 s-1.2833 -1.54 -1.31 -2.66 l2.7 0 c0 0.53334 0.20666 0.95668 0.62 1.27 s0.93334 0.47 1.56 0.47 c0.53334 0 0.97668 -0.11666 1.33 -0.35 s0.53 -0.55668 0.53 -0.97002 c0 -0.26666 -0.11 -0.48666 -0.33 -0.66 s-0.53 -0.32668 -0.93 -0.46002 s-1.02 -0.28668 -1.86 -0.46002 c-0.66666 -0.13334 -1.26 -0.31334 -1.78 -0.54 s-0.91666 -0.52332 -1.19 -0.88998 s-0.41 -0.81666 -0.41 -1.35 c0 -0.68 0.16334 -1.2733 0.49 -1.78 s0.82666 -0.89 1.5 -1.15 s1.51 -0.39 2.51 -0.39 z M84.91999999999999 9.38 c1.3867 0 2.47 0.28002 3.25 0.84002 s1.2167 1.38 1.31 2.46 l-2.7 0 c-0.04 -0.49334 -0.22 -0.85 -0.54 -1.07 s-0.78666 -0.33 -1.4 -0.33 c-0.53334 0 -0.93 0.08 -1.19 0.24 s-0.39 0.4 -0.39 0.72 c0 0.24 0.08666 0.44 0.26 0.6 s0.43668 0.3 0.79002 0.42 s0.74334 0.22 1.17 0.3 c1.2933 0.25334 2.2066 0.51334 2.74 0.78 s0.92334 0.58666 1.17 0.96 s0.37 0.83334 0.37 1.38 c0 1.16 -0.42334 2.05 -1.27 2.67 s-1.9967 0.93 -3.45 0.93 c-1.52 0 -2.7034 -0.32666 -3.55 -0.98 s-1.2833 -1.54 -1.31 -2.66 l2.7 0 c0 0.53334 0.20666 0.95668 0.62 1.27 s0.93334 0.47 1.56 0.47 c0.53334 0 0.97668 -0.11666 1.33 -0.35 s0.53 -0.55668 0.53 -0.97002 c0 -0.26666 -0.11 -0.48666 -0.33 -0.66 s-0.53 -0.32668 -0.93 -0.46002 s-1.02 -0.28668 -1.86 -0.46002 c-0.66666 -0.13334 -1.26 -0.31334 -1.78 -0.54 s-0.91666 -0.52332 -1.19 -0.88998 s-0.41 -0.81666 -0.41 -1.35 c0 -0.68 0.16334 -1.2733 0.49 -1.78 s0.82666 -0.89 1.5 -1.15 s1.51 -0.39 2.51 -0.39 z"></path>
    </g>
</svg>
